<svg xmlns="http://www.w3.org/2000/svg" viewBox="0 0 24 24" fill="none">
  <path fill="#11111b" d="M12 2a10 10 0 0 0-3.16 19.49c.5.09.68-.22.68-.48v-1.69c-2.78.6-3.37-1.34-3.37-1.34a2.66 2.66 0 0 0-1.12-1.47c-.92-.63.07-.62.07-.62a2.12 2.12 0 0 1 1.54 1.04 2.15 2.15 0 0 0 2.93.84 2.15 2.15 0 0 1 .64-1.35c-2.22-.25-4.55-1.11-4.55-4.94a3.87 3.87 0 0 1 1.03-2.68 3.59 3.59 0 0 1 .1-2.65s.84-.27 2.75 1.02a9.5 9.5 0 0 1 5 0c1.9-1.29 2.74-1.02 2.74-1.02.34.84.37 1.77.1 2.64a3.87 3.87 0 0 1 1.03 2.69c0 3.84-2.34 4.68-4.57 4.93a2.4 2.4 0 0 1 .68 1.87v2.77c0 .27.18.58.69.48A10 10 0 0 0 12 2Z"/>
</svg>
